<svg width="56" height="26" viewBox="0 0 56 26" fill="none" xmlns="http://www.w3.org/2000/svg">
<path d="M0 4C0 1.79086 1.79086 0 4 0H52C54.2091 0 56 1.79086 56 4V22C56 24.2091 54.2091 26 52 26H4C1.79086 26 0 24.2091 0 22V4Z" fill="#FEE9EF"/>
<path d="M16.7637 18V8.13574H9.02539V18H10.2559V9.24316H15.5332V18H16.7637ZM20.5986 14.8691L20.8242 11.875H23.5586V18H24.748V10.8906H19.751L19.4707 14.8418C19.375 16.1475 19.1152 16.9746 18.3564 16.9746C18.1719 16.9746 18.042 16.9473 17.9805 16.9268V18C18.0762 18.0342 18.2539 18.0684 18.4795 18.0684C19.9902 18.0684 20.4482 16.8311 20.5986 14.8691ZM29.3828 18.1367C31.3447 18.1367 32.6709 16.7148 32.6709 14.4453V14.4316C32.6709 12.1621 31.3379 10.7539 29.376 10.7539C27.4141 10.7539 26.0879 12.1689 26.0879 14.4316V14.4453C26.0879 16.708 27.4072 18.1367 29.3828 18.1367ZM29.3896 17.084C28.1318 17.084 27.3047 16.1201 27.3047 14.4453V14.4316C27.3047 12.7705 28.1387 11.8066 29.376 11.8066C30.6338 11.8066 31.4541 12.7637 31.4541 14.4316V14.4453C31.4541 16.1133 30.6406 17.084 29.3896 17.084ZM33.3203 18H34.6396L36.3555 15.293H36.3828L38.085 18H39.4043L37.0391 14.3975L39.4385 10.8906H38.1123L36.4238 13.5566H36.3965L34.6875 10.8906H33.3613L35.7402 14.4453L33.3203 18ZM43.3828 18.1367C45.3447 18.1367 46.6709 16.7148 46.6709 14.4453V14.4316C46.6709 12.1621 45.3379 10.7539 43.376 10.7539C41.4141 10.7539 40.0879 12.1689 40.0879 14.4316V14.4453C40.0879 16.708 41.4072 18.1367 43.3828 18.1367ZM43.3896 17.084C42.1318 17.084 41.3047 16.1201 41.3047 14.4453V14.4316C41.3047 12.7705 42.1387 11.8066 43.376 11.8066C44.6338 11.8066 45.4541 12.7637 45.4541 14.4316V14.4453C45.4541 16.1133 44.6406 17.084 43.3896 17.084Z" fill="#EA1A4F"/>
<path d="M4 1H52V-1H4V1ZM55 4V22H57V4H55ZM52 25H4V27H52V25ZM1 22V4H-1V22H1ZM4 25C2.34315 25 1 23.6569 1 22H-1C-1 24.7614 1.23858 27 4 27V25ZM55 22C55 23.6569 53.6569 25 52 25V27C54.7614 27 57 24.7614 57 22H55ZM52 1C53.6569 1 55 2.34315 55 4H57C57 1.23858 54.7614 -1 52 -1V1ZM4 -1C1.23858 -1 -1 1.23858 -1 4H1C1 2.34315 2.34315 1 4 1V-1Z" fill="#EA1A4F"/>
</svg>
