<svg width="66" height="26" viewBox="0 0 66 26" fill="none" xmlns="http://www.w3.org/2000/svg">
<path d="M0 4C0 1.79086 1.79086 0 4 0H62C64.2091 0 66 1.79086 66 4V22C66 24.2091 64.2091 26 62 26H4C1.79086 26 0 24.2091 0 22V4Z" fill="#D8E4FB"/>
<path d="M8.37598 18H9.77051L12.4297 14.0625H12.4707L15.0957 18H16.5723L13.2363 13.1055V13.0781L16.6475 8.13574H15.2461L12.5801 12.1074H12.5391L9.90039 8.13574H8.41699L11.7393 13.0166V13.0439L8.37598 18ZM20.5371 18.1367C22.499 18.1367 23.8252 16.7148 23.8252 14.4453V14.4316C23.8252 12.1621 22.4922 10.7539 20.5303 10.7539C18.5684 10.7539 17.2422 12.1689 17.2422 14.4316V14.4453C17.2422 16.708 18.5615 18.1367 20.5371 18.1367ZM20.5439 17.084C19.2861 17.084 18.459 16.1201 18.459 14.4453V14.4316C18.459 12.7705 19.293 11.8066 20.5303 11.8066C21.7881 11.8066 22.6084 12.7637 22.6084 14.4316V14.4453C22.6084 16.1133 21.7949 17.084 20.5439 17.084ZM25.165 20.3926H26.3545V16.8105H26.3818C26.8262 17.6309 27.6533 18.1367 28.6582 18.1367C30.4424 18.1367 31.6592 16.6943 31.6592 14.4521V14.4453C31.6592 12.2031 30.4561 10.7539 28.6377 10.7539C27.6191 10.7539 26.8262 11.2666 26.3818 12.0938H26.3545V10.8906H25.165V20.3926ZM28.4053 17.084C27.209 17.084 26.3477 16.0381 26.3477 14.4521V14.4453C26.3477 12.8525 27.2021 11.8066 28.4053 11.8066C29.6631 11.8066 30.4424 12.8115 30.4424 14.4453V14.4521C30.4424 16.0723 29.6631 17.084 28.4053 17.084ZM35.9453 18.1367C37.9072 18.1367 39.2334 16.7148 39.2334 14.4453V14.4316C39.2334 12.1621 37.9004 10.7539 35.9385 10.7539C33.9766 10.7539 32.6504 12.1689 32.6504 14.4316V14.4453C32.6504 16.708 33.9697 18.1367 35.9453 18.1367ZM35.9521 17.084C34.6943 17.084 33.8672 16.1201 33.8672 14.4453V14.4316C33.8672 12.7705 34.7012 11.8066 35.9385 11.8066C37.1963 11.8066 38.0166 12.7637 38.0166 14.4316V14.4453C38.0166 16.1133 37.2031 17.084 35.9521 17.084ZM40.5664 18H49.3438V10.8906H48.1543V17.0156H45.5498V10.8906H44.3604V17.0156H41.7559V10.8906H40.5664V18ZM53.9648 18.1367C55.9268 18.1367 57.2529 16.7148 57.2529 14.4453V14.4316C57.2529 12.1621 55.9199 10.7539 53.958 10.7539C51.9961 10.7539 50.6699 12.1689 50.6699 14.4316V14.4453C50.6699 16.708 51.9893 18.1367 53.9648 18.1367ZM53.9717 17.084C52.7139 17.084 51.8867 16.1201 51.8867 14.4453V14.4316C51.8867 12.7705 52.7207 11.8066 53.958 11.8066C55.2158 11.8066 56.0361 12.7637 56.0361 14.4316V14.4453C56.0361 16.1133 55.2227 17.084 53.9717 17.084Z" fill="#122945"/>
<path d="M4 1H62V-1H4V1ZM65 4V22H67V4H65ZM62 25H4V27H62V25ZM1 22V4H-1V22H1ZM4 25C2.34315 25 1 23.6569 1 22H-1C-1 24.7614 1.23858 27 4 27V25ZM65 22C65 23.6569 63.6569 25 62 25V27C64.7614 27 67 24.7614 67 22H65ZM62 1C63.6569 1 65 2.34315 65 4H67C67 1.23858 64.7614 -1 62 -1V1ZM4 -1C1.23858 -1 -1 1.23858 -1 4H1C1 2.34315 2.34315 1 4 1V-1Z" fill="#ADBFDF"/>
</svg>
